<?xml version="1.0" encoding="UTF-8" standalone="no"?><svg xmlns="http://www.w3.org/2000/svg" xmlns:xlink="http://www.w3.org/1999/xlink" contentScriptType="application/ecmascript" contentStyleType="text/css" height="821px" preserveAspectRatio="none" style="width:454px;height:821px;" version="1.1" viewBox="0 0 454 821" width="454px" zoomAndPan="magnify"><defs><filter height="300%" id="fxyeecqw9qdar" width="300%" x="-1" y="-1"><feGaussianBlur result="blurOut" stdDeviation="2.0"/><feColorMatrix in="blurOut" result="blurOut2" type="matrix" values="0 0 0 0 0 0 0 0 0 0 0 0 0 0 0 0 0 0 .4 0"/><feOffset dx="4.0" dy="4.0" in="blurOut2" result="blurOut3"/><feBlend in="SourceGraphic" in2="blurOut3" mode="normal"/></filter></defs><g><!--cluster notation--><polygon fill="#FFFFFF" filter="url(#fxyeecqw9qdar)" points="22,24,93,24,100,46.2969,432,46.2969,432,809,22,809,22,24" style="stroke: #000000; stroke-width: 1.5;"/><line style="stroke: #000000; stroke-width: 1.5;" x1="22" x2="100" y1="46.2969" y2="46.2969"/><text fill="#000000" font-family="sans-serif" font-size="14" font-weight="bold" lengthAdjust="spacingAndGlyphs" textLength="65" x="26" y="38.9951">notation</text><!--class InstrumentType--><rect fill="#FEFECE" filter="url(#fxyeecqw9qdar)" height="48" id="InstrumentType" style="stroke: #A80036; stroke-width: 1.5;" width="129" x="38.5" y="277"/><ellipse cx="53.5" cy="293" fill="#EB937F" rx="11" ry="11" style="stroke: #A80036; stroke-width: 1.0;"/><path d="M57.6094,299 L49.8906,299 L49.8906,286.6094 L57.6094,286.6094 L57.6094,288.7656 L52.3438,288.7656 L52.3438,291.4375 L57.1094,291.4375 L57.1094,293.5938 L52.3438,293.5938 L52.3438,296.8438 L57.6094,296.8438 L57.6094,299 Z "/><text fill="#000000" font-family="sans-serif" font-size="12" lengthAdjust="spacingAndGlyphs" textLength="97" x="67.5" y="297.1543">InstrumentType</text><line style="stroke: #A80036; stroke-width: 1.5;" x1="39.5" x2="166.5" y1="309" y2="309"/><line style="stroke: #A80036; stroke-width: 1.5;" x1="39.5" x2="166.5" y1="317" y2="317"/><!--class Tempo--><rect fill="#FEFECE" filter="url(#fxyeecqw9qdar)" height="48" id="Tempo" style="stroke: #A80036; stroke-width: 1.5;" width="74" x="203" y="277"/><ellipse cx="218" cy="293" fill="#EB937F" rx="11" ry="11" style="stroke: #A80036; stroke-width: 1.0;"/><path d="M222.1094,299 L214.3906,299 L214.3906,286.6094 L222.1094,286.6094 L222.1094,288.7656 L216.8438,288.7656 L216.8438,291.4375 L221.6094,291.4375 L221.6094,293.5938 L216.8438,293.5938 L216.8438,296.8438 L222.1094,296.8438 L222.1094,299 Z "/><text fill="#000000" font-family="sans-serif" font-size="12" lengthAdjust="spacingAndGlyphs" textLength="42" x="232" y="297.1543">Tempo</text><line style="stroke: #A80036; stroke-width: 1.5;" x1="204" x2="276" y1="309" y2="309"/><line style="stroke: #A80036; stroke-width: 1.5;" x1="204" x2="276" y1="317" y2="317"/><!--class Duration--><rect fill="#FEFECE" filter="url(#fxyeecqw9qdar)" height="48" id="Duration" style="stroke: #A80036; stroke-width: 1.5;" width="86" x="65" y="745"/><ellipse cx="80" cy="761" fill="#ADD1B2" rx="11" ry="11" style="stroke: #A80036; stroke-width: 1.0;"/><path d="M82.9688,766.6406 Q82.3906,766.9375 81.75,767.0781 Q81.1094,767.2344 80.4063,767.2344 Q77.9063,767.2344 76.5781,765.5938 Q75.2656,763.9375 75.2656,760.8125 Q75.2656,757.6875 76.5781,756.0313 Q77.9063,754.375 80.4063,754.375 Q81.1094,754.375 81.75,754.5313 Q82.4063,754.6875 82.9688,754.9844 L82.9688,757.7031 Q82.3438,757.125 81.75,756.8594 Q81.1563,756.5781 80.5313,756.5781 Q79.1875,756.5781 78.5,757.6563 Q77.8125,758.7188 77.8125,760.8125 Q77.8125,762.9063 78.5,763.9844 Q79.1875,765.0469 80.5313,765.0469 Q81.1563,765.0469 81.75,764.7813 Q82.3438,764.5 82.9688,763.9219 L82.9688,766.6406 Z "/><text fill="#000000" font-family="sans-serif" font-size="12" lengthAdjust="spacingAndGlyphs" textLength="54" x="94" y="765.1543">Duration</text><line style="stroke: #A80036; stroke-width: 1.5;" x1="66" x2="150" y1="777" y2="777"/><line style="stroke: #A80036; stroke-width: 1.5;" x1="66" x2="150" y1="785" y2="785"/><!--class Property--><rect fill="#FEFECE" filter="url(#fxyeecqw9qdar)" height="48" id="Property" style="stroke: #A80036; stroke-width: 1.5;" width="85" x="186.5" y="745"/><ellipse cx="201.5" cy="761" fill="#ADD1B2" rx="11" ry="11" style="stroke: #A80036; stroke-width: 1.0;"/><path d="M204.4688,766.6406 Q203.8906,766.9375 203.25,767.0781 Q202.6094,767.2344 201.9063,767.2344 Q199.4063,767.2344 198.0781,765.5938 Q196.7656,763.9375 196.7656,760.8125 Q196.7656,757.6875 198.0781,756.0313 Q199.4063,754.375 201.9063,754.375 Q202.6094,754.375 203.25,754.5313 Q203.9063,754.6875 204.4688,754.9844 L204.4688,757.7031 Q203.8438,757.125 203.25,756.8594 Q202.6563,756.5781 202.0313,756.5781 Q200.6875,756.5781 200,757.6563 Q199.3125,758.7188 199.3125,760.8125 Q199.3125,762.9063 200,763.9844 Q200.6875,765.0469 202.0313,765.0469 Q202.6563,765.0469 203.25,764.7813 Q203.8438,764.5 204.4688,763.9219 L204.4688,766.6406 Z "/><text fill="#000000" font-family="sans-serif" font-size="12" lengthAdjust="spacingAndGlyphs" textLength="53" x="215.5" y="765.1543">Property</text><line style="stroke: #A80036; stroke-width: 1.5;" x1="187.5" x2="270.5" y1="777" y2="777"/><line style="stroke: #A80036; stroke-width: 1.5;" x1="187.5" x2="270.5" y1="785" y2="785"/><!--class Ornament--><rect fill="#FEFECE" filter="url(#fxyeecqw9qdar)" height="48" id="Ornament" style="stroke: #A80036; stroke-width: 1.5;" width="94" x="307" y="745"/><ellipse cx="322" cy="761" fill="#ADD1B2" rx="11" ry="11" style="stroke: #A80036; stroke-width: 1.0;"/><path d="M324.9688,766.6406 Q324.3906,766.9375 323.75,767.0781 Q323.1094,767.2344 322.4063,767.2344 Q319.9063,767.2344 318.5781,765.5938 Q317.2656,763.9375 317.2656,760.8125 Q317.2656,757.6875 318.5781,756.0313 Q319.9063,754.375 322.4063,754.375 Q323.1094,754.375 323.75,754.5313 Q324.4063,754.6875 324.9688,754.9844 L324.9688,757.7031 Q324.3438,757.125 323.75,756.8594 Q323.1563,756.5781 322.5313,756.5781 Q321.1875,756.5781 320.5,757.6563 Q319.8125,758.7188 319.8125,760.8125 Q319.8125,762.9063 320.5,763.9844 Q321.1875,765.0469 322.5313,765.0469 Q323.1563,765.0469 323.75,764.7813 Q324.3438,764.5 324.9688,763.9219 L324.9688,766.6406 Z "/><text fill="#000000" font-family="sans-serif" font-size="12" lengthAdjust="spacingAndGlyphs" textLength="62" x="336" y="765.1543">Ornament</text><line style="stroke: #A80036; stroke-width: 1.5;" x1="308" x2="400" y1="777" y2="777"/><line style="stroke: #A80036; stroke-width: 1.5;" x1="308" x2="400" y1="785" y2="785"/><!--class AnyNote--><rect fill="#FEFECE" filter="url(#fxyeecqw9qdar)" height="48" id="AnyNote" style="stroke: #A80036; stroke-width: 1.5;" width="84" x="187" y="636"/><ellipse cx="202" cy="652" fill="#ADD1B2" rx="11" ry="11" style="stroke: #A80036; stroke-width: 1.0;"/><path d="M204.9688,657.6406 Q204.3906,657.9375 203.75,658.0781 Q203.1094,658.2344 202.4063,658.2344 Q199.9063,658.2344 198.5781,656.5938 Q197.2656,654.9375 197.2656,651.8125 Q197.2656,648.6875 198.5781,647.0313 Q199.9063,645.375 202.4063,645.375 Q203.1094,645.375 203.75,645.5313 Q204.4063,645.6875 204.9688,645.9844 L204.9688,648.7031 Q204.3438,648.125 203.75,647.8594 Q203.1563,647.5781 202.5313,647.5781 Q201.1875,647.5781 200.5,648.6563 Q199.8125,649.7188 199.8125,651.8125 Q199.8125,653.9063 200.5,654.9844 Q201.1875,656.0469 202.5313,656.0469 Q203.1563,656.0469 203.75,655.7813 Q204.3438,655.5 204.9688,654.9219 L204.9688,657.6406 Z "/><text fill="#000000" font-family="sans-serif" font-size="12" lengthAdjust="spacingAndGlyphs" textLength="52" x="216" y="656.1543">AnyNote</text><line style="stroke: #A80036; stroke-width: 1.5;" x1="188" x2="270" y1="668" y2="668"/><line style="stroke: #A80036; stroke-width: 1.5;" x1="188" x2="270" y1="676" y2="676"/><!--class OneBar--><rect fill="#FEFECE" filter="url(#fxyeecqw9qdar)" height="48" id="OneBar" style="stroke: #A80036; stroke-width: 1.5;" width="78" x="190" y="527"/><ellipse cx="205" cy="543" fill="#ADD1B2" rx="11" ry="11" style="stroke: #A80036; stroke-width: 1.0;"/><path d="M207.9688,548.6406 Q207.3906,548.9375 206.75,549.0781 Q206.1094,549.2344 205.4063,549.2344 Q202.9063,549.2344 201.5781,547.5938 Q200.2656,545.9375 200.2656,542.8125 Q200.2656,539.6875 201.5781,538.0313 Q202.9063,536.375 205.4063,536.375 Q206.1094,536.375 206.75,536.5313 Q207.4063,536.6875 207.9688,536.9844 L207.9688,539.7031 Q207.3438,539.125 206.75,538.8594 Q206.1563,538.5781 205.5313,538.5781 Q204.1875,538.5781 203.5,539.6563 Q202.8125,540.7188 202.8125,542.8125 Q202.8125,544.9063 203.5,545.9844 Q204.1875,547.0469 205.5313,547.0469 Q206.1563,547.0469 206.75,546.7813 Q207.3438,546.5 207.9688,545.9219 L207.9688,548.6406 Z "/><text fill="#000000" font-family="sans-serif" font-size="12" lengthAdjust="spacingAndGlyphs" textLength="46" x="219" y="547.1543">OneBar</text><line style="stroke: #A80036; stroke-width: 1.5;" x1="191" x2="267" y1="559" y2="559"/><line style="stroke: #A80036; stroke-width: 1.5;" x1="191" x2="267" y1="567" y2="567"/><!--class BarParserUtl--><rect fill="#FEFECE" filter="url(#fxyeecqw9qdar)" height="48" id="BarParserUtl" style="stroke: #A80036; stroke-width: 1.5;" width="111" x="303.5" y="527"/><ellipse cx="318.5" cy="543" fill="#ADD1B2" rx="11" ry="11" style="stroke: #A80036; stroke-width: 1.0;"/><path d="M321.4688,548.6406 Q320.8906,548.9375 320.25,549.0781 Q319.6094,549.2344 318.9063,549.2344 Q316.4063,549.2344 315.0781,547.5938 Q313.7656,545.9375 313.7656,542.8125 Q313.7656,539.6875 315.0781,538.0313 Q316.4063,536.375 318.9063,536.375 Q319.6094,536.375 320.25,536.5313 Q320.9063,536.6875 321.4688,536.9844 L321.4688,539.7031 Q320.8438,539.125 320.25,538.8594 Q319.6563,538.5781 319.0313,538.5781 Q317.6875,538.5781 317,539.6563 Q316.3125,540.7188 316.3125,542.8125 Q316.3125,544.9063 317,545.9844 Q317.6875,547.0469 319.0313,547.0469 Q319.6563,547.0469 320.25,546.7813 Q320.8438,546.5 321.4688,545.9219 L321.4688,548.6406 Z "/><text fill="#000000" font-family="sans-serif" font-size="12" lengthAdjust="spacingAndGlyphs" textLength="79" x="332.5" y="547.1543">BarParserUtl</text><line style="stroke: #A80036; stroke-width: 1.5;" x1="304.5" x2="413.5" y1="559" y2="559"/><line style="stroke: #A80036; stroke-width: 1.5;" x1="304.5" x2="413.5" y1="567" y2="567"/><!--class OneBarFacade--><rect fill="#FEFECE" filter="url(#fxyeecqw9qdar)" height="48" id="OneBarFacade" style="stroke: #A80036; stroke-width: 1.5;" width="124" x="292" y="402"/><ellipse cx="307" cy="418" fill="#ADD1B2" rx="11" ry="11" style="stroke: #A80036; stroke-width: 1.0;"/><path d="M309.9688,423.6406 Q309.3906,423.9375 308.75,424.0781 Q308.1094,424.2344 307.4063,424.2344 Q304.9063,424.2344 303.5781,422.5938 Q302.2656,420.9375 302.2656,417.8125 Q302.2656,414.6875 303.5781,413.0313 Q304.9063,411.375 307.4063,411.375 Q308.1094,411.375 308.75,411.5313 Q309.4063,411.6875 309.9688,411.9844 L309.9688,414.7031 Q309.3438,414.125 308.75,413.8594 Q308.1563,413.5781 307.5313,413.5781 Q306.1875,413.5781 305.5,414.6563 Q304.8125,415.7188 304.8125,417.8125 Q304.8125,419.9063 305.5,420.9844 Q306.1875,422.0469 307.5313,422.0469 Q308.1563,422.0469 308.75,421.7813 Q309.3438,421.5 309.9688,420.9219 L309.9688,423.6406 Z "/><text fill="#000000" font-family="sans-serif" font-size="12" lengthAdjust="spacingAndGlyphs" textLength="92" x="321" y="422.1543">OneBarFacade</text><line style="stroke: #A80036; stroke-width: 1.5;" x1="293" x2="415" y1="434" y2="434"/><line style="stroke: #A80036; stroke-width: 1.5;" x1="293" x2="415" y1="442" y2="442"/><!--class BarElement--><rect fill="#FEFECE" filter="url(#fxyeecqw9qdar)" height="48" id="BarElement" style="stroke: #A80036; stroke-width: 1.5;" width="104" x="312" y="277"/><ellipse cx="327" cy="293" fill="#ADD1B2" rx="11" ry="11" style="stroke: #A80036; stroke-width: 1.0;"/><path d="M329.9688,298.6406 Q329.3906,298.9375 328.75,299.0781 Q328.1094,299.2344 327.4063,299.2344 Q324.9063,299.2344 323.5781,297.5938 Q322.2656,295.9375 322.2656,292.8125 Q322.2656,289.6875 323.5781,288.0313 Q324.9063,286.375 327.4063,286.375 Q328.1094,286.375 328.75,286.5313 Q329.4063,286.6875 329.9688,286.9844 L329.9688,289.7031 Q329.3438,289.125 328.75,288.8594 Q328.1563,288.5781 327.5313,288.5781 Q326.1875,288.5781 325.5,289.6563 Q324.8125,290.7188 324.8125,292.8125 Q324.8125,294.9063 325.5,295.9844 Q326.1875,297.0469 327.5313,297.0469 Q328.1563,297.0469 328.75,296.7813 Q329.3438,296.5 329.9688,295.9219 L329.9688,298.6406 Z "/><text fill="#000000" font-family="sans-serif" font-size="12" lengthAdjust="spacingAndGlyphs" textLength="72" x="341" y="297.1543">BarElement</text><line style="stroke: #A80036; stroke-width: 1.5;" x1="313" x2="415" y1="309" y2="309"/><line style="stroke: #A80036; stroke-width: 1.5;" x1="313" x2="415" y1="317" y2="317"/><!--class OneVoice--><rect fill="#FEFECE" filter="url(#fxyeecqw9qdar)" height="48" id="OneVoice" style="stroke: #A80036; stroke-width: 1.5;" width="91" x="194.5" y="168"/><ellipse cx="209.5" cy="184" fill="#ADD1B2" rx="11" ry="11" style="stroke: #A80036; stroke-width: 1.0;"/><path d="M212.4688,189.6406 Q211.8906,189.9375 211.25,190.0781 Q210.6094,190.2344 209.9063,190.2344 Q207.4063,190.2344 206.0781,188.5938 Q204.7656,186.9375 204.7656,183.8125 Q204.7656,180.6875 206.0781,179.0313 Q207.4063,177.375 209.9063,177.375 Q210.6094,177.375 211.25,177.5313 Q211.9063,177.6875 212.4688,177.9844 L212.4688,180.7031 Q211.8438,180.125 211.25,179.8594 Q210.6563,179.5781 210.0313,179.5781 Q208.6875,179.5781 208,180.6563 Q207.3125,181.7188 207.3125,183.8125 Q207.3125,185.9063 208,186.9844 Q208.6875,188.0469 210.0313,188.0469 Q210.6563,188.0469 211.25,187.7813 Q211.8438,187.5 212.4688,186.9219 L212.4688,189.6406 Z "/><text fill="#000000" font-family="sans-serif" font-size="12" lengthAdjust="spacingAndGlyphs" textLength="59" x="223.5" y="188.1543">OneVoice</text><line style="stroke: #A80036; stroke-width: 1.5;" x1="195.5" x2="284.5" y1="200" y2="200"/><line style="stroke: #A80036; stroke-width: 1.5;" x1="195.5" x2="284.5" y1="208" y2="208"/><!--class BasicSheet--><rect fill="#FEFECE" filter="url(#fxyeecqw9qdar)" height="48" id="BasicSheet" style="stroke: #A80036; stroke-width: 1.5;" width="102" x="189" y="59"/><ellipse cx="204" cy="75" fill="#ADD1B2" rx="11" ry="11" style="stroke: #A80036; stroke-width: 1.0;"/><path d="M206.9688,80.6406 Q206.3906,80.9375 205.75,81.0781 Q205.1094,81.2344 204.4063,81.2344 Q201.9063,81.2344 200.5781,79.5938 Q199.2656,77.9375 199.2656,74.8125 Q199.2656,71.6875 200.5781,70.0313 Q201.9063,68.375 204.4063,68.375 Q205.1094,68.375 205.75,68.5313 Q206.4063,68.6875 206.9688,68.9844 L206.9688,71.7031 Q206.3438,71.125 205.75,70.8594 Q205.1563,70.5781 204.5313,70.5781 Q203.1875,70.5781 202.5,71.6563 Q201.8125,72.7188 201.8125,74.8125 Q201.8125,76.9063 202.5,77.9844 Q203.1875,79.0469 204.5313,79.0469 Q205.1563,79.0469 205.75,78.7813 Q206.3438,78.5 206.9688,77.9219 L206.9688,80.6406 Z "/><text fill="#000000" font-family="sans-serif" font-size="12" lengthAdjust="spacingAndGlyphs" textLength="70" x="218" y="79.1543">BasicSheet</text><line style="stroke: #A80036; stroke-width: 1.5;" x1="190" x2="290" y1="91" y2="91"/><line style="stroke: #A80036; stroke-width: 1.5;" x1="190" x2="290" y1="99" y2="99"/><!--link AnyNote to Duration--><path d="M192.99,692.84 C174.11,709.54 151.4,729.62 134.2,744.83 " fill="none" id="AnyNote-Duration" style="stroke: #A80036; stroke-width: 1.0;"/><polygon fill="#A80036" points="202.74,684.22,195.5955,685.1976,193.75,692.1686,200.8946,691.191,202.74,684.22" style="stroke: #A80036; stroke-width: 1.0;"/><text fill="#000000" font-family="sans-serif" font-size="13" lengthAdjust="spacingAndGlyphs" textLength="8" x="187.3641" y="704.0348">1</text><!--link AnyNote to Property--><path d="M229,697.3 C229,713.02 229,730.96 229,744.83 " fill="none" id="AnyNote-Property" style="stroke: #A80036; stroke-width: 1.0;"/><polygon fill="#A80036" points="229,684.22,225,690.22,229,696.22,233,690.22,229,684.22" style="stroke: #A80036; stroke-width: 1.0;"/><text fill="#000000" font-family="sans-serif" font-size="13" lengthAdjust="spacingAndGlyphs" textLength="8" x="220.025" y="704.0348">1</text><text fill="#000000" font-family="sans-serif" font-size="13" lengthAdjust="spacingAndGlyphs" textLength="68" x="152.2875" y="733.7985">unique_ptr</text><!--link AnyNote to Ornament--><path d="M266.2,692.84 C285.71,709.54 309.17,729.62 326.93,744.83 " fill="none" id="AnyNote-Ornament" style="stroke: #A80036; stroke-width: 1.0;"/><polygon fill="#A80036" points="256.12,684.22,258.079,691.1599,265.2385,692.0208,263.2795,685.0809,256.12,684.22" style="stroke: #A80036; stroke-width: 1.0;"/><text fill="#000000" font-family="sans-serif" font-size="13" lengthAdjust="spacingAndGlyphs" textLength="8" x="253.7555" y="704.0348">1</text><!--link OneBar to AnyNote--><path d="M229,588.3 C229,604.02 229,621.96 229,635.83 " fill="none" id="OneBar-AnyNote" style="stroke: #A80036; stroke-width: 1.0;"/><polygon fill="#FFFFFF" points="229,575.22,225,581.22,229,587.22,233,581.22,229,575.22" style="stroke: #A80036; stroke-width: 1.0;"/><text fill="#000000" font-family="sans-serif" font-size="13" lengthAdjust="spacingAndGlyphs" textLength="30" x="195.3438" y="595.0348">listof</text><text fill="#000000" font-family="sans-serif" font-size="13" lengthAdjust="spacingAndGlyphs" textLength="68" x="152.2875" y="624.7985">unique_ptr</text><!--link OneBarFacade to OneBar--><path d="M307.58,463.14 C301.18,468.61 294.81,474.33 289,480 C273.99,494.64 258.63,512.63 247.21,526.7 " fill="none" id="OneBarFacade-OneBar" style="stroke: #A80036; stroke-width: 1.0;"/><polygon fill="none" points="303.39,457.52,323.27,450.2,312.29,468.33,303.39,457.52" style="stroke: #A80036; stroke-width: 1.0;"/><text fill="#000000" font-family="sans-serif" font-size="13" lengthAdjust="spacingAndGlyphs" textLength="57" x="290" y="493.0669">decorate</text><!--link OneBarFacade to BarParserUtl--><path d="M354.94,450.14 C355.83,472.13 357.17,505.01 358.06,526.97 " fill="none" id="OneBarFacade-BarParserUtl" style="stroke: #A80036; stroke-width: 1.0;"/><text fill="#000000" font-family="sans-serif" font-size="13" lengthAdjust="spacingAndGlyphs" textLength="23" x="357" y="493.0669">use</text><!--link BarElement to OneBarFacade--><path d="M360.49,345.17 C358.94,364.29 357.17,386.02 355.87,401.97 " fill="none" id="BarElement-OneBarFacade" style="stroke: #A80036; stroke-width: 1.0;"/><polygon fill="none" points="353.52,344.5,362.12,325.14,367.48,345.64,353.52,344.5" style="stroke: #A80036; stroke-width: 1.0;"/><text fill="#000000" font-family="sans-serif" font-size="13" lengthAdjust="spacingAndGlyphs" textLength="57" x="360" y="368.0669">decorate</text><!--link OneVoice to BarElement--><path d="M276.9,224.84 C296.25,241.54 319.53,261.62 337.15,276.83 " fill="none" id="OneVoice-BarElement" style="stroke: #A80036; stroke-width: 1.0;"/><polygon fill="#FFFFFF" points="266.91,216.22,268.8425,223.1673,275.9987,224.0555,274.0662,217.1082,266.91,216.22" style="stroke: #A80036; stroke-width: 1.0;"/><text fill="#000000" font-family="sans-serif" font-size="13" lengthAdjust="spacingAndGlyphs" textLength="30" x="277.1256" y="236.0348">listof</text><text fill="#000000" font-family="sans-serif" font-size="13" lengthAdjust="spacingAndGlyphs" textLength="68" x="285.3322" y="265.7985">unique_ptr</text><!--link BasicSheet to OneVoice--><path d="M240,120.3 C240,136.02 240,153.96 240,167.83 " fill="none" id="BasicSheet-OneVoice" style="stroke: #A80036; stroke-width: 1.0;"/><polygon fill="#A80036" points="240,107.22,236,113.22,240,119.22,244,113.22,240,107.22" style="stroke: #A80036; stroke-width: 1.0;"/><text fill="#000000" font-family="sans-serif" font-size="13" lengthAdjust="spacingAndGlyphs" textLength="8" x="231.025" y="127.0348">1</text><!--link OneVoice to InstrumentType--><path d="M199.82,224.38 C178.32,241.17 152.31,261.48 132.67,276.83 " fill="none" id="OneVoice-InstrumentType" style="stroke: #A80036; stroke-width: 1.0;"/><polygon fill="#A80036" points="210.27,216.22,203.0788,216.7559,200.8077,223.6001,207.9989,223.0641,210.27,216.22" style="stroke: #A80036; stroke-width: 1.0;"/><text fill="#000000" font-family="sans-serif" font-size="13" lengthAdjust="spacingAndGlyphs" textLength="8" x="194.0483" y="236.0348">1</text><!--link OneVoice to Tempo--><path d="M240,229.3 C240,245.02 240,262.96 240,276.83 " fill="none" id="OneVoice-Tempo" style="stroke: #A80036; stroke-width: 1.0;"/><polygon fill="#A80036" points="240,216.22,236,222.22,240,228.22,244,222.22,240,216.22" style="stroke: #A80036; stroke-width: 1.0;"/><text fill="#000000" font-family="sans-serif" font-size="13" lengthAdjust="spacingAndGlyphs" textLength="8" x="231.025" y="236.0348">1</text><!--
@startuml
package "notation" {
enum InstrumentType
enum Tempo
class Duration
class Property
class Ornament
class AnyNote
class OneBar
class BarParserUtl
class OneBarFacade
class BarElement
class OneVoice
class BasicSheet

AnyNote "1" *- - Duration
AnyNote "1" *- - "unique_ptr" Property
AnyNote "1" *- - Ornament

OneBar "listof" o- - "unique_ptr" AnyNote

OneBarFacade <|- - OneBar : decorate
OneBarFacade - - BarParserUtl : use
BarElement <|- - OneBarFacade : decorate

OneVoice "listof" o- - "unique_ptr" BarElement
BasicSheet "1" *- - OneVoice

OneVoice "1" *- - InstrumentType
OneVoice "1" *- - Tempo
}
@enduml

PlantUML version 1.2018.13(Mon Nov 26 18:11:51 CET 2018)
(GPL source distribution)
Java Runtime: OpenJDK Runtime Environment
JVM: OpenJDK 64-Bit Server VM
Java Version: 11.0.11+9-Ubuntu-0ubuntu2.20.04
Operating System: Linux
OS Version: 5.11.0-40-generic
Default Encoding: UTF-8
Language: en
Country: GB
--></g></svg>