<?xml version="1.0" encoding="UTF-8" standalone="no"?><svg xmlns="http://www.w3.org/2000/svg" xmlns:xlink="http://www.w3.org/1999/xlink" contentScriptType="application/ecmascript" contentStyleType="text/css" height="603px" preserveAspectRatio="none" style="width:340px;height:603px;" version="1.1" viewBox="0 0 340 603" width="340px" zoomAndPan="magnify"><defs><filter height="300%" id="f233pxlpix3jr" width="300%" x="-1" y="-1"><feGaussianBlur result="blurOut" stdDeviation="2.0"/><feColorMatrix in="blurOut" result="blurOut2" type="matrix" values="0 0 0 0 0 0 0 0 0 0 0 0 0 0 0 0 0 0 .4 0"/><feOffset dx="4.0" dy="4.0" in="blurOut2" result="blurOut3"/><feBlend in="SourceGraphic" in2="blurOut3" mode="normal"/></filter></defs><g><!--cluster notation--><polygon fill="#FFFFFF" filter="url(#f233pxlpix3jr)" points="22,24,93,24,100,46.2969,318,46.2969,318,591,22,591,22,24" style="stroke: #000000; stroke-width: 1.5;"/><line style="stroke: #000000; stroke-width: 1.5;" x1="22" x2="100" y1="46.2969" y2="46.2969"/><text fill="#000000" font-family="sans-serif" font-size="14" font-weight="bold" lengthAdjust="spacingAndGlyphs" textLength="65" x="26" y="38.9951">notation</text><!--entity defs--><rect fill="#FEFECE" filter="url(#f233pxlpix3jr)" height="36.2969" style="stroke: #A80036; stroke-width: 1.5;" width="50" x="88" y="539"/><rect fill="#FEFECE" height="5" style="stroke: #A80036; stroke-width: 1.5;" width="10" x="83" y="544"/><rect fill="#FEFECE" height="5" style="stroke: #A80036; stroke-width: 1.5;" width="10" x="83" y="565.2969"/><text fill="#000000" font-family="sans-serif" font-size="14" lengthAdjust="spacingAndGlyphs" textLength="30" x="98" y="561.9951">defs</text><!--entity defs_property--><rect fill="#FEFECE" filter="url(#f233pxlpix3jr)" height="36.2969" style="stroke: #A80036; stroke-width: 1.5;" width="115" x="186.5" y="443"/><rect fill="#FEFECE" height="5" style="stroke: #A80036; stroke-width: 1.5;" width="10" x="181.5" y="448"/><rect fill="#FEFECE" height="5" style="stroke: #A80036; stroke-width: 1.5;" width="10" x="181.5" y="469.2969"/><text fill="#000000" font-family="sans-serif" font-size="14" lengthAdjust="spacingAndGlyphs" textLength="95" x="196.5" y="465.9951">defs_property</text><!--entity note--><rect fill="#FEFECE" filter="url(#f233pxlpix3jr)" height="36.2969" style="stroke: #A80036; stroke-width: 1.5;" width="52" x="149" y="347"/><rect fill="#FEFECE" height="5" style="stroke: #A80036; stroke-width: 1.5;" width="10" x="144" y="352"/><rect fill="#FEFECE" height="5" style="stroke: #A80036; stroke-width: 1.5;" width="10" x="144" y="373.2969"/><text fill="#000000" font-family="sans-serif" font-size="14" lengthAdjust="spacingAndGlyphs" textLength="32" x="159" y="369.9951">note</text><!--entity measure--><rect fill="#FEFECE" filter="url(#f233pxlpix3jr)" height="36.2969" style="stroke: #A80036; stroke-width: 1.5;" width="81" x="112.5" y="251"/><rect fill="#FEFECE" height="5" style="stroke: #A80036; stroke-width: 1.5;" width="10" x="107.5" y="256"/><rect fill="#FEFECE" height="5" style="stroke: #A80036; stroke-width: 1.5;" width="10" x="107.5" y="277.2969"/><text fill="#000000" font-family="sans-serif" font-size="14" lengthAdjust="spacingAndGlyphs" textLength="61" x="122.5" y="273.9951">measure</text><!--entity barline_facade--><rect fill="#FEFECE" filter="url(#f233pxlpix3jr)" height="36.2969" style="stroke: #A80036; stroke-width: 1.5;" width="119" x="75.5" y="155"/><rect fill="#FEFECE" height="5" style="stroke: #A80036; stroke-width: 1.5;" width="10" x="70.5" y="160"/><rect fill="#FEFECE" height="5" style="stroke: #A80036; stroke-width: 1.5;" width="10" x="70.5" y="181.2969"/><text fill="#000000" font-family="sans-serif" font-size="14" lengthAdjust="spacingAndGlyphs" textLength="99" x="85.5" y="177.9951">barline_facade</text><!--entity partition--><rect fill="#FEFECE" filter="url(#f233pxlpix3jr)" height="36.2969" style="stroke: #A80036; stroke-width: 1.5;" width="76" x="97" y="59"/><rect fill="#FEFECE" height="5" style="stroke: #A80036; stroke-width: 1.5;" width="10" x="92" y="64"/><rect fill="#FEFECE" height="5" style="stroke: #A80036; stroke-width: 1.5;" width="10" x="92" y="85.2969"/><text fill="#000000" font-family="sans-serif" font-size="14" lengthAdjust="spacingAndGlyphs" textLength="56" x="107" y="81.9951">partition</text><!--link defs_property to defs--><path d="M220.28,479.02 C198.07,494.96 164.85,518.79 141.27,535.71 " fill="none" id="defs_property-defs" style="stroke: #A80036; stroke-width: 1.0; stroke-dasharray: 7.0,7.0;"/><polygon fill="#A80036" points="136.99,538.79,146.6333,536.7881,141.0509,535.873,141.9661,530.2907,136.99,538.79" style="stroke: #A80036; stroke-width: 1.0;"/><!--link note to defs--><path d="M169.39,383.2 C158.09,417.82 132.62,495.86 120.15,534.08 " fill="none" id="note-defs" style="stroke: #A80036; stroke-width: 1.0; stroke-dasharray: 7.0,7.0;"/><polygon fill="#A80036" points="118.55,538.98,125.1513,531.6709,120.1054,534.2281,117.5482,529.1822,118.55,538.98" style="stroke: #A80036; stroke-width: 1.0;"/><!--link measure to defs--><path d="M147.36,287.23 C142.53,302.71 135.76,326.14 132,347 C119.89,414.15 115.33,494.91 113.75,533.43 " fill="none" id="measure-defs" style="stroke: #A80036; stroke-width: 1.0; stroke-dasharray: 7.0,7.0;"/><polygon fill="#A80036" points="113.54,538.8,117.8965,529.9671,113.7398,533.804,109.9029,529.6473,113.54,538.8" style="stroke: #A80036; stroke-width: 1.0;"/><!--link barline_facade to defs--><path d="M123.06,191.08 C113.34,206.08 100.4,228.9 95,251 C69.75,354.37 95.13,483.03 107.29,533.86 " fill="none" id="barline_facade-defs" style="stroke: #A80036; stroke-width: 1.0; stroke-dasharray: 7.0,7.0;"/><polygon fill="#A80036" points="108.49,538.82,110.2749,529.1342,107.321,533.9586,102.4966,531.0047,108.49,538.82" style="stroke: #A80036; stroke-width: 1.0;"/><!--link partition to defs--><path d="M111.21,95.13 C93.6,109.17 70.56,130.63 58,155 C34.66,200.27 39,217.07 39,268 C39,268 39,268 39,366 C39,430.88 76.93,500.24 98.48,534.42 " fill="none" id="partition-defs" style="stroke: #A80036; stroke-width: 1.0; stroke-dasharray: 7.0,7.0;"/><polygon fill="#A80036" points="101.27,538.8,99.8064,529.0605,98.5828,534.5835,93.0599,533.3599,101.27,538.8" style="stroke: #A80036; stroke-width: 1.0;"/><!--link note to defs_property--><path d="M187.66,383.24 C199.13,398.88 216.09,421.98 228.4,438.75 " fill="none" id="note-defs_property" style="stroke: #A80036; stroke-width: 1.0; stroke-dasharray: 7.0,7.0;"/><polygon fill="#A80036" points="231.42,442.87,229.3189,433.2479,228.4613,438.8393,222.8699,437.9818,231.42,442.87" style="stroke: #A80036; stroke-width: 1.0;"/><!--link measure to note--><path d="M157.04,287.24 C160.63,302.61 165.92,325.2 169.83,341.89 " fill="none" id="measure-note" style="stroke: #A80036; stroke-width: 1.0; stroke-dasharray: 7.0,7.0;"/><polygon fill="#A80036" points="170.99,346.87,172.8223,337.1931,169.8448,342.0029,165.035,339.0254,170.99,346.87" style="stroke: #A80036; stroke-width: 1.0;"/><!--link barline_facade to measure--><path d="M138.3,191.24 C141.24,206.61 145.57,229.2 148.77,245.89 " fill="none" id="barline_facade-measure" style="stroke: #A80036; stroke-width: 1.0; stroke-dasharray: 7.0,7.0;"/><polygon fill="#A80036" points="149.72,250.87,151.9525,241.2775,148.7779,245.9596,144.0958,242.7849,149.72,250.87" style="stroke: #A80036; stroke-width: 1.0;"/><!--link partition to barline_facade--><path d="M124.87,95.24 C121.7,110.61 121.41,133.2 123.99,149.89 " fill="none" id="partition-barline_facade" style="stroke: #A80036; stroke-width: 1.0; stroke-dasharray: 7.0,7.0;"/><polygon fill="#A80036" points="124.89,154.87,127.235,145.3044,124.0056,149.9488,119.3612,146.7194,124.89,154.87" style="stroke: #A80036; stroke-width: 1.0;"/><!--link partition to barline_facade--><path d="M145.73,95.24 C149.08,110.61 149.39,133.2 146.65,149.89 " fill="none" id="partition-barline_facade" style="stroke: #A80036; stroke-width: 1.0; stroke-dasharray: 7.0,7.0;"/><polygon fill="#A80036" points="145.7,154.87,151.3015,146.7692,146.6283,149.9569,143.4406,145.2838,145.7,154.87" style="stroke: #A80036; stroke-width: 1.0;"/><!--
@startuml
package "notation" {
[defs]
[defs_property]
[note]
[measure]
[barline_facade]
[partition]

[defs_property] ..> [defs]
[note] ..> [defs]
[measure] ..> [defs]
[barline_facade] ..> [defs]
[partition] ..> [defs]
[note] ..> [defs_property]
[measure] ..> [note]
[barline_facade] ..> [measure]
[partition] ..> [barline_facade]
[partition] ..> [barline_facade]
}
@enduml

PlantUML version 1.2018.13(Mon Nov 26 18:11:51 CET 2018)
(GPL source distribution)
Java Runtime: OpenJDK Runtime Environment
JVM: OpenJDK 64-Bit Server VM
Java Version: 11.0.11+9-Ubuntu-0ubuntu2.20.04
Operating System: Linux
OS Version: 5.11.0-40-generic
Default Encoding: UTF-8
Language: en
Country: GB
--></g></svg>